<?xml version="1.0" encoding="UTF-8"?>
<svg width="52pt" height="52pt" version="1.1" viewBox="0 0 752 752" xmlns="http://www.w3.org/2000/svg">
 <path fill="#06d483" d="m583.19 328.72h-31.668c-6.6016-0.28906-12.844-3.0859-17.449-7.8242s-7.2266-11.059-7.3242-17.664c-0.10156-6.6055 2.3281-13 6.793-17.875l22.199-22.199h-0.003907c2.0977-2.0703 3.2773-4.8984 3.2773-7.8438 0-2.9492-1.1797-5.7734-3.2773-7.8438l-50.98-51.43c-4.4141-4.1328-11.277-4.1328-15.688 0l-22.199 22.199c-3.6133 3.4414-8.1719 5.7227-13.09 6.5547s-9.9727 0.17188-14.512-1.8906c-4.5859-1.7734-8.5391-4.875-11.348-8.9102-2.8086-4.0352-4.3477-8.8164-4.4141-13.734v-31.449c0-6.1289-4.9688-11.098-11.102-11.098h-72.59c-6.1289 0-11.098 4.9688-11.098 11.098v31.672c-0.28906 6.6016-3.0859 12.844-7.8242 17.449-4.7383 4.6055-11.059 7.2266-17.664 7.3242s-13-2.332-17.875-6.793l-22.199-22.199c-4.332-4.3281-11.355-4.3281-15.688 0l-51.43 50.984c-2.0938 2.0703-3.2773 4.8984-3.2773 7.8438 0 2.9492 1.1836 5.7734 3.2773 7.8438l22.199 22.199c3.3984 3.543 5.6719 8.0117 6.543 12.84 0.86719 4.832 0.29297 9.8125-1.6562 14.316v0.44531c-1.7812 4.582-4.8867 8.5273-8.918 11.332-4.0352 2.8086-8.8125 4.3516-13.727 4.4297h-31.672c-6.1289 0-11.098 4.9688-11.098 11.098v72.371c-0.058594 2.9805 1.082 5.8633 3.1719 7.9922 2.0859 2.1289 4.9453 3.3281 7.9258 3.3281h31.672c6.6016 0.28516 12.844 3.0859 17.449 7.8242 4.6055 4.7383 7.2266 11.055 7.3242 17.664 0.097656 6.6055-2.332 13-6.793 17.875l-22.199 22.199c-2.0977 2.0703-3.2773 4.8945-3.2773 7.8438 0 2.9453 1.1797 5.7695 3.2773 7.8438l51.207 51.207v-0.003907c4.4102 4.1367 11.277 4.1367 15.688 0l22.199-22.199v0.003907c3.6094-3.4414 8.168-5.7266 13.086-6.5547 4.918-0.83203 9.9727-0.17188 14.516 1.8906 4.5859 1.7734 8.5352 4.875 11.344 8.9102 2.8125 4.0352 4.3477 8.8164 4.418 13.734v31.668c0 6.1328 4.9688 11.102 11.098 11.102h72.371c6.1289 0 11.098-4.9688 11.098-11.102v-31.668c0.28516-6.6016 3.0859-12.844 7.8242-17.449s11.055-7.2266 17.664-7.3242c6.6055-0.10156 13 2.3281 17.875 6.793l22.199 22.199v-0.003907c4.332 4.3281 11.352 4.3281 15.688 0l51.207-51.207-0.003907 0.003906c2.0977-2.0742 3.2773-4.8984 3.2773-7.8438 0-2.9492-1.1797-5.7734-3.2773-7.8438l-22.199-22.199h0.003907c-3.3828-3.5078-5.6562-7.9297-6.5391-12.723-0.88281-4.7891-0.33203-9.7344 1.5781-14.215 0.027344-0.21875 0.027344-0.44141 0-0.66406 1.7812-4.582 4.8867-8.5273 8.918-11.336 4.0352-2.8047 8.8125-4.3477 13.727-4.4258h31.965c6.1328 0 11.102-4.9688 11.102-11.098v-72.371c0-6.1289-4.9688-11.098-11.102-11.098zm-207.19 142.96c-25.375 0-49.711-10.082-67.652-28.023-17.945-17.941-28.023-42.281-28.023-67.656s10.078-49.711 28.023-67.652c17.941-17.945 42.277-28.023 67.652-28.023s49.715 10.078 67.656 28.023c17.941 17.941 28.023 42.277 28.023 67.652-0.019532 25.371-10.105 49.695-28.047 67.633-17.938 17.941-42.262 28.027-67.633 28.047z"/>
</svg>
