<?xml version="1.0" encoding="UTF-8"?>
<svg width="300px" height="300px" version="1.1" viewBox="0 0 752 752" xmlns="http://www.w3.org/2000/svg">
 <path  d="m478.86 347.11c-0.054687-13.898-4.8477-27.367-13.594-38.172 2.9688-12.352 2.043-25.32-2.6484-37.129-0.92578-2.2695-2.8203-4.0078-5.1641-4.7344-3.3164-1.1367-15.863-3.2695-41.438 13.309-11-2.9023-22.348-4.2734-33.719-4.0742-11.391-0.20312-22.754 1.168-33.766 4.0742-26.238-16.953-39.875-14.207-42.621-13.402h-0.003906c-2.3555 0.75781-4.2461 2.5273-5.1602 4.8281-4.707 11.77-5.6641 24.703-2.7461 37.035-9.0312 10.75-13.844 24.418-13.547 38.453 0 52.379 29.98 68.199 57.445 73.785-1.4102 3.4492-2.3789 7.0586-2.8867 10.75-0.050781 0.39453-0.050781 0.79297 0 1.1836v14.492c-25.004 2.082-30.355-12.551-30.879-14.207-0.12109-0.38672-0.26172-0.76563-0.42578-1.1367-4.8281-9.8555-13.332-17.422-23.68-21.074-4.3398-1.4531-9.0391 0.89062-10.488 5.2344-1.4531 4.3398 0.89062 9.0352 5.2305 10.488 5.7344 2.0703 10.52 6.1641 13.453 11.508 3.3164 10.75 16.859 27.75 46.695 25.859v13.641-0.003907c0 4.5781 3.707 8.2891 8.2852 8.2891s8.2891-3.7109 8.2891-8.2891v-44.184c0.62891-4.8242 2.7266-9.3398 6.0156-12.93 2.3477-2.1992 3.2031-5.5664 2.1836-8.6211-1.0156-3.0547-3.7227-5.2344-6.9219-5.5859-28.887-3.3633-55.598-12.883-55.598-59.527-0.38672-11.387 4.0078-22.414 12.125-30.406 2.1992-2.3672 2.9258-5.7461 1.8945-8.8086-2.793-8.1055-2.9727-16.883-0.52344-25.098 10.168 2.293 19.719 6.7695 27.988 13.117 2.1523 1.4258 4.8398 1.7891 7.293 0.99219 10.523-3.1992 21.492-4.6875 32.488-4.4023 10.98-0.28516 21.934 1.1992 32.441 4.4023 2.4531 0.80469 5.1406 0.4375 7.293-0.99219 7.9648-6.1055 17.082-10.535 26.805-13.023 2.4141 8.3047 2.1992 17.156-0.61719 25.336-0.94141 2.7773-0.32812 5.8477 1.6133 8.0508 7.8398 8.3711 12.277 19.363 12.453 30.832 0 46.555-28.082 56.215-55.598 59.527-3.3711 0.375-6.168 2.7773-7.0469 6.0547-0.87891 3.2773 0.33594 6.7539 3.0664 8.7695 2.9375 2.2266 6.3477 8.4766 6.3477 18.941v37.508c0 4.5781 3.7109 8.2891 8.2891 8.2891 4.5742 0 8.2852-3.7109 8.2852-8.2891v-37.508c0.089843-6.5938-1.1172-13.145-3.5508-19.273 22.258-4.7383 56.641-19.371 56.641-73.879z"/>
</svg>
