<?xml version="1.0" encoding="UTF-8"?>
<svg width="100pt" height="100pt" version="1.1" viewBox="0 0 752 752" xmlns="http://www.w3.org/2000/svg">
 <g>
  <path fill="#06d483" d="m480.19 480.19c37.414-37.414 50.199-89.508 39.309-137.81l-40.254 13.262 28.887-116.97 92.82 77.195-40.727 13.262c15.629 62.984-0.94531 132.13-49.727 181.38-57.305 57.305-142.55 70.562-212.64 38.832l10.418-42.621c55.41 28.883 125.5 19.887 171.91-26.527z"/>
  <path fill="#06d483" d="m191.78 422.89c-15.629-62.984 0.94531-132.13 49.727-181.38 57.305-57.305 142.07-70.09 211.69-39.309l-10.418 42.621c-55.41-27.941-125.02-18.941-170.96 26.992-37.414 37.414-50.199 89.508-39.309 137.81l40.254-13.262-28.891 116.98-92.82-77.195z"/>
 </g>
</svg>
